<svg display="block" role="presentation" viewBox="0 0 145 91" xmlns="http://www.w3.org/2000/svg"><g d="M 0 83.361 L 14 83.361 C 14 83.361 14 28.241 14 15.361 C 25.804 14.073 35.738 15.501 42.816 19.849 C 49.895 24.198 54.118 31.467 54.5 41.861 C 54.12 59.511 44.114 69.643 24.5 69.643 C 17.897 73.515 21.253 83.143 25 83.143 C 38.852 83.853 66.591 79.012 68.5 41.764 C 68.5 33.595 66.387 22.896 57.5 14.009 C 46.022 1.5 29.809 0.758 0 1.861 C 0.167 20.634 0 83.361 0 83.361 Z M 99 0 C 102.59 0 105.5 2.91 105.5 6.5 C 105.5 10.09 102.59 13 99 13 C 95.41 13 92.5 10.09 92.5 6.5 C 92.5 2.91 95.41 0 99 0 Z M 119 0 C 122.59 0 125.5 2.91 125.5 6.5 C 125.5 10.09 122.59 13 119 13 C 115.41 13 112.5 10.09 112.5 6.5 C 112.5 2.91 115.41 0 119 0 Z M 99.999 27.5 C 99.999 27.5 84.937 30.248 84.036 49.379 C 83.135 68.51 99.501 73.5 99.501 73.5 M 118 73.5 C 118 73.5 133.063 70.752 133.964 51.621 C 134.864 32.49 118.499 27.5 118.499 27.5" fill="transparent" height="83.361169608831px" id="O_qleGgqL" transform="translate(3 2)" width="133.99949637864236px"><path d="M 0 81.861 L 14 81.861 C 14 81.861 14 26.741 14 13.861 C 25.804 12.573 35.738 14.001 42.816 18.349 C 49.895 22.698 54.118 29.967 54.5 40.361 C 54.12 58.011 44.114 68.143 24.5 68.143 C 17.897 72.015 21.253 81.643 25 81.643 C 38.852 82.353 66.591 77.512 68.5 40.264 C 68.5 32.095 66.387 21.396 57.5 12.509 C 46.022 0 29.809 -0.742 0 0.361 C 0.167 19.134 0 81.861 0 81.861 Z" fill="rgb(115, 13, 181)" height="81.861169608831px" id="AA8zak4_Z" transform="translate(0 1.5)" width="68.5px"/><path d="M 6.5 0 C 10.09 0 13 2.91 13 6.5 C 13 10.09 10.09 13 6.5 13 C 2.91 13 0 10.09 0 6.5 C 0 2.91 2.91 0 6.5 0 Z" fill="rgb(115, 13, 181)" height="13px" id="Rzqxx8tgp" transform="translate(92.5 0)" width="13px"/><path d="M 6.5 0 C 10.09 0 13 2.91 13 6.5 C 13 10.09 10.09 13 6.5 13 C 2.91 13 0 10.09 0 6.5 C 0 2.91 2.91 0 6.5 0 Z" fill="rgb(115, 13, 181)" height="13px" id="bhsDmwgdH" transform="translate(112.5 0)" width="13px"/><path d="M 15.999 0 C 15.999 0 0.937 2.748 0.036 21.879 C -0.865 41.01 15.501 46 15.501 46" fill="transparent" height="46px" id="xFUQNb9OO" stroke-dasharray="0" stroke-linecap="round" stroke-linejoin="miter" stroke-miterlimit="4" stroke-width="14" stroke="rgb(115, 13, 181)" transform="translate(84 27.5)" width="15.999496378642391px"/><path d="M 15.999 0 C 15.999 0 0.937 2.748 0.036 21.879 C -0.865 41.01 15.501 46 15.501 46" fill="transparent" height="46px" id="WAjZy2XRD" stroke-dasharray="0" stroke-linecap="round" stroke-linejoin="miter" stroke-miterlimit="4" stroke-width="14" stroke="rgb(115, 13, 181)" transform="translate(118 27.5) rotate(180 8 23)" width="15.999496378642363px"/></g></svg>